<svg id="money" xmlns="http://www.w3.org/2000/svg" viewBox="0 0 164.15 152.34"><title>money-icon</title><path d="M-207.71,168.12a52,52,0,0,1,52.48-51.73,52.08,52.08,0,0,1,51.49,52.23,52.09,52.09,0,0,1-52.49,51.74A52.06,52.06,0,0,1-207.71,168.12Zm44.12,10c5.05,0,9.68.09,14.31,0a55.47,55.47,0,0,0,10.41-.81c9-2,15.37-10.6,15.12-19.81-.24-9-6.9-18-15.71-18.75-12.24-1-24.62-.51-36.93-.36-1.19,0-3.22,2.14-3.3,3.39s1.47,3.15,2.79,4,3.17.5,4.84.7v21.48L-179.7,174l6.73,5.62.89-1v7.2l-1.16-1-6.54,5.08,7,5.82c1,1.29.5,3.63,1.18,5.54s2.56,3.22,3.91,4.8c1.31-1.63,3.18-3.09,3.78-5,.66-2,.15-4.46.15-7,8,0,15.38.24,22.67-.18,1.74-.1,3.35-2.42,5-3.72-1.39-1.35-2.59-3.05-4.23-3.92-1.17-.63-2.93-.16-4.43-.16h-18.89Z" transform="translate(267.89 -72.08)"/><path d="M-212,124.84c-13.66-.57-27-2.35-39.27-8.58a49.29,49.29,0,0,1-13-9.78c-4.46-4.66-4.68-9.42-.59-14.43,3.38-4.14,7.56-8.33,12.31-10.54,27-12.58,54.32-12.47,81.5-.26a33.45,33.45,0,0,1,7.87,5.22c10.4,9,9.6,20-2.64,26.09a156.92,156.92,0,0,1-27.4,10.09C-199.26,124.34-205.77,124.17-212,124.84Z" transform="translate(267.89 -72.08)"/><path d="M-267.24,187.84c19.37,14.42,41.24,17.3,64.14,16.4a10.85,10.85,0,0,1,6.33,2.36c5.41,4.06,10.55,8.47,16.62,13.43-7.11,1.29-14,2.94-20.89,3.72a95.29,95.29,0,0,1-45.09-5.37,64.3,64.3,0,0,1-8.08-3.86C-264.59,208.8-269.82,200.44-267.24,187.84Z" transform="translate(267.89 -72.08)"/><path d="M-199.14,132c-2.85,5.05-5.54,10-8.41,14.75a3.71,3.71,0,0,1-2.65,1.58c-17.05.06-33.57-2.3-48.12-12.05-8-5.35-9.87-10-9.09-20.47C-247,131.23-223.5,133.42-199.14,132Z" transform="translate(267.89 -72.08)"/><path d="M-204.82,196.24c-18,.64-35-1.27-50.57-10.09-8.35-4.74-14.09-11.21-12-21.85.22,0,.65-.23.82-.1,15,11.63,32.51,15.4,50.89,16,4.11.14,5.81,1.32,6.73,5.19C-208.15,188.87-206.43,192.15-204.82,196.24Z" transform="translate(267.89 -72.08)"/><path d="M-210.85,156.52c-.42,5.48-.8,10.4-1.21,15.9-17.34-.59-34-2.91-48.35-13.78-6.09-4.62-8.45-10.8-6.88-18.92C-250.67,152.68-231.29,156-210.85,156.52Z" transform="translate(267.89 -72.08)"/><path d="M-163.59,170.15V146.59c7.84,0,15.62-.57,23.27.19,5.24.52,8.9,6.68,8.56,12-.36,5.76-4.81,10.38-10.92,11.23a31.18,31.18,0,0,1-4,.15Z" transform="translate(267.89 -72.08)"/></svg>