<svg id="Capa_1" data-name="Capa 1" xmlns="http://www.w3.org/2000/svg" viewBox="0 0 465.46 512.02"><defs><style>.cls-1{fill:orange;}</style></defs><title>ruble-icon</title><path class="cls-1" d="M11.64,430.54H93.1v69.83A11.21,11.21,0,0,0,103.87,512h61.59a11.47,11.47,0,0,0,8.18-3.28,11,11,0,0,0,3.45-8.35V430.54H360.73a11.21,11.21,0,0,0,11.64-10.76c0-.3,0-.59,0-.88V372.36a11.23,11.23,0,0,0-10.8-11.64q-.42,0-.84,0H177.09V317.81H300.72q72.73,0,118.73-44.36t46-114.54q0-70.17-46-114.55T300.72,0h-196A11.2,11.2,0,0,0,93.09,10.75c0,.3,0,.59,0,.88V240.37H11.64a11,11,0,0,0-8.37,3.45A11.5,11.5,0,0,0,0,252v54.18a11.2,11.2,0,0,0,10.75,11.63H93.1v42.91H11.64A11.21,11.21,0,0,0,0,371.48c0,.3,0,.59,0,.88V418.9a11.2,11.2,0,0,0,10.74,11.64ZM177.09,77.46H293.45q38.54,0,62.18,22.54t23.64,58.91q0,36.38-23.64,58.91t-62.18,22.55H177.09Z" transform="translate(0.01 0.01)"/></svg>